# xmcd
#
# Track frame offsets: 
#        150
#        11160
#        22192
#        31050
#        39820
#        49605
#        58267
#        70187
#        80497
#        95870
#        105472
#        120500
#        138327
#        151212
#        161265
#        174192
#        184792
#        193882
#        206232
#        223667
#        236835
#        247115
#        273175
#
# Disc length: 3789 seconds
#
# Revision: 0
# Processed by: cddbd v1.5.2PL0 Copyright (c) Steve Scherf et al.
# Submitted via: ExactAudioCopy v0.95b3
#
DISCID=420ecb17
DTITLE=Elvis Presley  - Elvis Christmas - 2006 DSD Remaster Series  FL
DTITLE=AC
DYEAR=1900
DGENRE=
TTITLE0=Santa Claus Is Back In Town
TTITLE1=White Christmas
TTITLE2=Here Comes Santa Claus (Right Down Santa Claus Lane)
TTITLE3=I'll Be Home For Christmas
TTITLE4=Blue Christmas
TTITLE5=Santa Bring My Baby Back (To Me)
TTITLE6=O Little Town Of Bethlehem
TTITLE7=Silent Night
TTITLE8=(There'll Be) Peace In The Valley (For Me)
TTITLE9=I Believe
TTITLE10=Take My Hand, Precious Lord
TTITLE11=It Is No Secret (What God Can Do)
TTITLE12=O Come, All Ye Faithful
TTITLE13=The First Noel
TTITLE14=On A Snowy Christmas Night
TTITLE15=Winter Wonderland
TTITLE16=The Wonderful World Of Christmas
TTITLE17=It Won't Seem Like Christmas (Without  You)
TTITLE18=I'll Be Home On Christmas Day
TTITLE19=If I Get Home On Christmas Day
TTITLE20=Holly Leaves And Christmas Trees
TTITLE21=Merry Christmas Baby
TTITLE22=Silver Bells
EXTD=
EXTT0=
EXTT1=
EXTT2=
EXTT3=
EXTT4=
EXTT5=
EXTT6=
EXTT7=
EXTT8=
EXTT9=
EXTT10=
EXTT11=
EXTT12=
EXTT13=
EXTT14=
EXTT15=
EXTT16=
EXTT17=
EXTT18=
EXTT19=
EXTT20=
EXTT21=
EXTT22=
PLAYORDER=
